<svg width="49" height="55" viewBox="0 0 49 55" fill="none" xmlns="http://www.w3.org/2000/svg">
<g clip-path="url(#clip0_50_40)">
<path d="M9.88281 3.4375C6.09082 3.4375 3.00781 6.52051 3.00781 10.3125V44.6875C3.00781 48.4795 6.09082 51.5625 9.88281 51.5625H44.2578C48.0498 51.5625 51.1328 48.4795 51.1328 44.6875V10.3125C51.1328 6.52051 48.0498 3.4375 44.2578 3.4375H9.88281ZM41.7979 12.4609L30.6475 25.2012L43.7637 42.5391H33.4941L25.459 32.0225L16.2529 42.5391H11.1504L23.0742 28.9072L10.4951 12.4609H21.0225L28.2949 22.0752L36.6953 12.4609H41.7979ZM37.7373 39.4883L19.4863 15.3506H16.4463L34.9014 39.4883H37.7266H37.7373Z" fill="black"/>
</g>
<defs>
<clipPath id="clip0_50_40">
<rect width="48.125" height="55" fill="white"/>
</clipPath>
</defs>
</svg>
