<svg width="44" height="44" viewBox="0 0 44 44" fill="none" xmlns="http://www.w3.org/2000/svg">
<path d="M18.3335 15.5833L29.3335 21.9999L18.3335 28.4166V15.5833Z" fill="#D9D9D9"/>
<path fill-rule="evenodd" clip-rule="evenodd" d="M7.57256 14.8399C7.33764 16.4844 7.33317 18.7343 7.33317 21.9999C7.33317 25.2655 7.33764 27.5154 7.57256 29.1599C7.80149 30.7624 8.20159 31.4037 8.6879 31.7819C9.27225 32.2364 10.3522 32.6103 12.6186 32.8062C14.841 32.9983 17.8399 32.9999 21.9998 32.9999C26.1598 32.9999 29.1587 32.9983 31.3811 32.8062C33.6475 32.6103 34.7274 32.2364 35.3118 31.7819C35.7981 31.4037 36.1982 30.7624 36.4271 29.1599C36.662 27.5154 36.6665 25.2655 36.6665 21.9999C36.6665 18.7343 36.662 16.4844 36.4271 14.8399C36.1982 13.2374 35.7981 12.5961 35.3118 12.2179C34.7274 11.7634 33.6475 11.3895 31.3811 11.1936C29.1587 11.0016 26.1598 10.9999 21.9998 10.9999C17.8399 10.9999 14.841 11.0016 12.6186 11.1936C10.3522 11.3895 9.27225 11.7634 8.6879 12.2179C8.20159 12.5961 7.80149 13.2374 7.57256 14.8399ZM21.9043 7.33325H22.0954C26.1396 7.33324 29.2974 7.33323 31.6968 7.54058C34.0709 7.74576 36.0848 8.17394 37.5629 9.32361C39.1391 10.5495 39.7702 12.3145 40.0569 14.3214C40.3333 16.2559 40.3332 18.7699 40.3332 21.8544V22.1454C40.3332 25.23 40.3333 27.7439 40.0569 29.6785C39.7702 31.6853 39.1391 33.4503 37.5629 34.6762C36.0848 35.8259 34.0709 36.2541 31.6968 36.4593C29.2974 36.6666 26.1396 36.6666 22.0954 36.6666H21.9042C17.8601 36.6666 14.7023 36.6666 12.3029 36.4593C9.92874 36.2541 7.91493 35.8259 6.43678 34.6762C4.86059 33.4503 4.22944 31.6853 3.94275 29.6785C3.66638 27.7439 3.66644 25.23 3.66651 22.1455V21.8543C3.66644 18.7698 3.66638 16.2559 3.94275 14.3214C4.22944 12.3145 4.86059 10.5495 6.43678 9.32361C7.91493 8.17394 9.92874 7.74576 12.3029 7.54058C14.7023 7.33323 17.8601 7.33324 21.9043 7.33325Z" fill="#D9D9D9"/>
</svg>
