<svg width="55" height="55" viewBox="0 0 55 55" fill="none" xmlns="http://www.w3.org/2000/svg">
<path d="M31.6778 28.0363C31.6412 28.8384 31.3799 29.613 30.9193 30.2707C30.4572 30.9499 29.7923 31.4656 29.0195 31.7442C28.2544 32.0556 27.4125 32.126 26.6064 31.9459C25.7964 31.7737 25.0569 31.3617 24.4843 30.7634C23.9175 30.1376 23.5449 29.3605 23.4118 28.5267C23.2632 27.719 23.3647 26.8851 23.7028 26.1365C24.0328 25.3872 24.5737 24.7478 25.2658 24.3032C25.9693 23.8678 26.7828 23.6363 27.6124 23.634C28.7055 23.6936 29.7345 24.1657 30.4953 24.9517C30.8888 25.3606 31.1963 25.8443 31.3994 26.3741C31.6025 26.904 31.6972 27.4692 31.6778 28.0363Z" fill="black"/>
<path d="M39.5654 18.3379C39.3049 17.6938 38.9175 17.1086 38.4261 16.6172C37.9348 16.1259 37.3496 15.7384 36.7054 15.4779C36.0565 15.2266 35.3685 15.0908 34.6727 15.0769H20.5514C19.1546 15.0823 17.8165 15.6396 16.8288 16.6274C15.8411 17.6151 15.2838 18.9532 15.2783 20.35V34.7394C15.2803 35.4336 15.4194 36.1205 15.6876 36.7607C15.9559 37.401 16.3479 37.9819 16.8412 38.4702C17.8286 39.4499 19.1606 40.0035 20.5514 40.0125H34.6727C35.7128 40.0058 36.7282 39.6942 37.593 39.1162C38.4577 38.5382 39.134 37.7192 39.5379 36.7607C39.8056 36.1203 39.9442 35.4334 39.9458 34.7394V20.3707C39.9385 19.6761 39.8097 18.9882 39.5654 18.3379ZM33.9806 30.8069C33.6454 31.6441 33.1432 32.4043 32.5048 33.0413C31.8631 33.6898 31.1046 34.21 30.2704 34.5836C29.3668 34.9626 28.3951 35.1524 27.4152 35.1414C26.4354 35.1304 25.4682 34.9187 24.5733 34.5194C23.1339 33.8714 21.9533 32.7597 21.22 31.3617C20.4868 29.9638 20.2433 28.3605 20.5285 26.8079C20.8016 25.4371 21.4607 24.1729 22.4283 23.1642C23.4137 22.1766 24.6672 21.4999 26.0335 21.218C27.3998 20.9361 28.8188 21.0614 30.1146 21.5784C31.4139 22.1054 32.5208 23.0175 33.2862 24.1932C34.0597 25.3267 34.48 26.664 34.4939 28.0363C34.526 28.9873 34.3496 29.9315 33.9806 30.8069ZM36.4373 19.7679C36.4588 19.9465 36.4423 20.1277 36.3887 20.2994C36.3351 20.4711 36.2456 20.6295 36.1263 20.7641C36.007 20.8987 35.8604 21.0065 35.6964 21.0803C35.5323 21.1541 35.3545 21.1922 35.1746 21.1922C34.9947 21.1922 34.8168 21.1541 34.6528 21.0803C34.4887 21.0065 34.3422 20.8987 34.2229 20.7641C34.1035 20.6295 34.0141 20.4711 33.9605 20.2994C33.9069 20.1277 33.8903 19.9465 33.9119 19.7679C33.885 19.5865 33.8976 19.4014 33.9487 19.2253C33.9998 19.0491 34.0883 18.886 34.2082 18.7472C34.328 18.6083 34.4764 18.4969 34.6431 18.4205C34.8099 18.3442 34.9912 18.3046 35.1746 18.3046C35.358 18.3046 35.5393 18.3442 35.706 18.4205C35.8728 18.4969 36.0211 18.6083 36.141 18.7472C36.2608 18.886 36.3493 19.0491 36.4004 19.2253C36.4516 19.4014 36.4641 19.5865 36.4373 19.7679Z" fill="black"/>
<path d="M38.6719 5.15625H16.3281C13.3652 5.15625 10.5235 6.33328 8.42842 8.42842C6.33328 10.5235 5.15625 13.3652 5.15625 16.3281V38.6719C5.15625 40.139 5.44522 41.5917 6.00666 42.9472C6.5681 44.3026 7.39101 45.5342 8.42842 46.5716C10.5235 48.6667 13.3652 49.8438 16.3281 49.8438H38.6719C40.139 49.8438 41.5917 49.5548 42.9472 48.9933C44.3026 48.4319 45.5342 47.609 46.5716 46.5716C47.609 45.5342 48.4319 44.3026 48.9933 42.9472C49.5548 41.5917 49.8438 40.139 49.8438 38.6719V16.3281C49.8438 14.861 49.5548 13.4083 48.9933 12.0528C48.4319 10.6974 47.609 9.46582 46.5716 8.42842C45.5342 7.39101 44.3026 6.5681 42.9472 6.00666C41.5917 5.44522 40.139 5.15625 38.6719 5.15625ZM43.4087 34.5171C43.4317 35.6858 43.2094 36.8523 42.7602 37.934C41.8537 40.1048 40.1278 41.8308 37.9569 42.7373C36.8729 43.1865 35.711 43.4065 34.5377 43.3858H20.7969C19.6253 43.4026 18.4623 43.1828 17.3777 42.7396C16.3032 42.2878 15.3248 41.6352 14.4948 40.8169C13.6728 39.9903 13.0204 39.011 12.5744 37.934C12.1013 36.8562 11.8578 35.6918 11.8594 34.5148V20.6662C11.8433 19.4945 12.0639 18.3316 12.5079 17.2471C13.3942 15.0671 15.1046 13.3246 17.2677 12.3979C18.3914 11.961 19.5919 11.756 20.7969 11.7952H34.65C35.8114 11.7846 36.9633 12.0063 38.0377 12.4475C39.1121 12.8887 40.0875 13.5404 40.9063 14.3642C41.7244 15.1938 42.3752 16.1746 42.8267 17.2471C43.2735 18.331 43.4958 19.4929 43.4752 20.6662L43.4087 34.5171Z" fill="black"/>
</svg>
