<svg width="66" height="66" viewBox="0 0 66 66" fill="none" xmlns="http://www.w3.org/2000/svg">
<path d="M8.26635 32.3721C8.29181 27.9166 11.9384 24.3114 16.394 24.3368L29.2274 24.4102C26.4865 21.3153 26.6367 16.2463 29.6006 13.3107C31.1248 11.8043 33.1848 10.9649 35.3278 10.9771C37.4707 10.9894 39.521 11.8522 41.0278 13.3759L60.101 32.6683L40.8087 51.7415C39.2845 53.2478 37.2244 54.0872 35.0815 54.075C32.9386 54.0627 30.8883 53.1999 29.3814 51.6762C26.4485 48.7123 26.3563 43.6337 29.1351 40.5731L16.3017 40.4998C11.8461 40.4744 8.2409 36.8277 8.26635 32.3721ZM42.1863 29.872L16.3632 29.7245C15.6694 29.7516 15.0128 30.0452 14.5301 30.5442C14.0474 31.0433 13.7758 31.7093 13.7718 32.4036C13.7678 33.0979 14.0318 33.767 14.5088 34.2715C14.9858 34.776 15.639 35.0772 16.3324 35.1121L42.1555 35.2597L33.234 44.0798C32.7407 44.5898 32.4632 45.2704 32.4591 45.98C32.4551 46.6895 32.7248 47.3732 33.2123 47.8889C33.7146 48.3968 34.398 48.6844 35.1123 48.6885C35.8266 48.6925 36.5133 48.4127 37.0213 47.9106L52.4829 32.6248L37.197 17.1633C36.6947 16.6554 36.0113 16.3677 35.297 16.3637C34.5827 16.3596 33.896 16.6394 33.3879 17.1415C32.8946 17.6515 32.6171 18.3321 32.613 19.0417C32.609 19.7512 32.8787 20.4349 33.3662 20.9506L42.1863 29.872Z" fill="black"/>
</svg>
