<svg width="51" height="41" viewBox="0 0 51 41" fill="none" xmlns="http://www.w3.org/2000/svg">
<path d="M5.1 41C3.6975 41 2.4973 40.4986 1.4994 39.4958C0.5015 38.493 0.0017 37.2861 0 35.875V5.125C0 3.71562 0.4998 2.50954 1.4994 1.50675C2.499 0.503958 3.6992 0.00170833 5.1 0H45.9C47.3025 0 48.5035 0.50225 49.5031 1.50675C50.5027 2.51125 51.0017 3.71733 51 5.125V35.875C51 37.2844 50.501 38.4913 49.5031 39.4958C48.5052 40.5003 47.3042 41.0017 45.9 41H5.1ZM25.5 23.0625L5.1 10.25V35.875H45.9V10.25L25.5 23.0625ZM25.5 17.9375L45.9 5.125H5.1L25.5 17.9375ZM5.1 10.25V5.125V35.875V10.25Z" fill="white"/>
</svg>
