<svg width="505" height="505" viewBox="0 0 505 505" fill="none" xmlns="http://www.w3.org/2000/svg">
<path d="M163.717 203.516L162.629 298.76L337.404 300.707L338.439 205.463L163.717 203.516ZM418.066 331.333L418.531 290.803C410.6 288.381 403.667 283.454 398.77 276.762C393.873 270.069 391.275 261.971 391.366 253.679C391.457 245.386 394.231 237.347 399.274 230.763C404.316 224.179 411.356 219.406 419.338 217.158L419.803 176.628C419.837 171.543 417.862 166.65 414.306 163.014C410.75 159.378 405.902 157.294 400.817 157.215L105.592 153.926C100.507 153.892 95.614 155.867 91.9782 159.423C88.3424 162.979 86.2583 167.827 86.1796 172.912L85.755 213.428C93.696 215.846 100.639 220.774 105.542 227.472C110.446 234.169 113.046 242.277 112.952 250.577C112.858 258.877 110.075 266.923 105.021 273.509C99.9672 280.094 92.9145 284.863 84.9209 287.1L84.4963 327.617C84.4518 332.705 86.4241 337.604 89.9819 341.242C93.5397 344.88 98.3934 346.961 103.481 347.03L398.653 350.318C403.741 350.363 408.64 348.39 412.278 344.833C415.916 341.275 417.997 336.421 418.066 331.333ZM140.6 320.304L142.173 181.487L360.481 183.932L358.935 322.723L140.6 320.304Z" fill="black"/>
</svg>
