<svg width="40" height="37" viewBox="0 0 40 37" fill="none" xmlns="http://www.w3.org/2000/svg">
<path d="M7.9425 4.79167C8.075 6.53458 8.40625 8.23833 8.93625 9.86375L6.28625 12.2137C5.38083 9.86375 4.80667 7.37667 4.60792 4.79167H7.9425ZM29.7167 28.3308C31.5937 28.8008 33.515 29.0946 35.4583 29.2121V32.13C32.5433 31.9537 29.7387 31.4446 27.0667 30.6612L29.7167 28.3308ZM10.0625 0.875H2.33333C1.11875 0.875 0.125 1.75625 0.125 2.83333C0.125 21.2221 16.9304 36.125 37.6667 36.125C38.8812 36.125 39.875 35.2438 39.875 34.1667V27.3321C39.875 26.255 38.8812 25.3738 37.6667 25.3738C34.9283 25.3738 32.2562 24.9821 29.7829 24.2575C29.5643 24.1851 29.3316 24.1518 29.0983 24.1596C28.5242 24.1596 27.9721 24.3554 27.5304 24.7275L22.6721 29.0358C16.4125 26.1969 11.3205 21.6814 8.11917 16.1304L12.9775 11.8221C13.5958 11.2738 13.7725 10.51 13.5296 9.82458C12.6933 7.56838 12.2684 5.20829 12.2708 2.83333C12.2708 1.75625 11.2771 0.875 10.0625 0.875Z" fill="white"/>
</svg>
